<svg width="19" height="19" viewBox="0 0 19 19" fill="none" xmlns="http://www.w3.org/2000/svg">
<g clip-path="url(#clip0_194_179)">
<path d="M17.6359 9.81539C17.5113 9.62376 17.5113 9.37624 17.6359 9.18461L18.3298 8.11809C18.9619 7.14664 18.536 5.84152 17.4557 5.42801L16.2675 4.97305C16.054 4.89126 15.9084 4.69098 15.8967 4.46265L15.8312 3.19203C15.7715 2.03482 14.6599 1.22888 13.5428 1.52947L12.3142 1.85981C12.0934 1.91911 11.8579 1.84263 11.7142 1.66484L10.9143 0.675326C10.1858 -0.225832 8.81302 -0.224385 8.08576 0.675326L7.28583 1.66488C7.14214 1.84271 6.90669 1.91911 6.68589 1.85985L5.45716 1.52951C4.33784 1.22848 3.22828 2.03708 3.16875 3.19207L3.10326 4.46269C3.09146 4.69098 2.94595 4.8913 2.73246 4.97305L1.5443 5.42801C0.46179 5.84237 0.0393391 7.14857 0.670158 8.11812L1.36406 9.18461C1.48871 9.3762 1.48871 9.62379 1.36406 9.81539L0.670269 10.8819C0.0381516 11.8534 0.464165 13.1586 1.54434 13.572L2.73257 14.0269C2.94606 14.1087 3.0916 14.309 3.10337 14.5373L3.16887 15.808C3.22854 16.9654 4.34033 17.771 5.45728 17.4705L6.68592 17.1402C6.90676 17.081 7.14218 17.1574 7.2859 17.3351L8.08579 18.3246C8.81443 19.226 10.1872 19.2242 10.9144 18.3246L11.7143 17.3351C11.8579 17.1574 12.0935 17.081 12.3142 17.1402L13.5429 17.4705C14.6619 17.7717 15.7718 16.9631 15.8313 15.808L15.8968 14.5373C15.9086 14.309 16.0541 14.1087 16.2676 14.027L17.4558 13.572C18.5382 13.1577 18.9607 11.8515 18.33 10.8819L17.6359 9.81539ZM17.0123 12.4138L15.8241 12.8687C15.1528 13.1257 14.6952 13.7556 14.6582 14.4734L14.5927 15.7441C14.5737 16.1122 14.2202 16.3683 13.8649 16.2728L12.6362 15.9425C11.942 15.7557 11.2015 15.9965 10.7497 16.5554L9.94986 17.5449C9.71811 17.8316 9.28156 17.831 9.05026 17.5449L8.25045 16.5554C7.90021 16.1222 7.37652 15.8801 6.8354 15.8801C6.67846 15.8801 6.52001 15.9005 6.36389 15.9425L5.13517 16.2728C4.77907 16.3684 4.42638 16.1115 4.40738 15.7441L4.34189 14.4734C4.30489 13.7556 3.84722 13.1257 3.17599 12.8687L1.98776 12.4137C1.64349 12.2819 1.5092 11.8666 1.70981 11.5583L2.40368 10.4918C2.79566 9.88927 2.79566 9.11065 2.40368 8.50822L1.70981 7.44174C1.50875 7.13277 1.6442 6.71777 1.98779 6.58622L3.17603 6.13126C3.8473 5.87425 4.30493 5.24435 4.34192 4.52655L4.40742 3.25593C4.42638 2.88777 4.77985 2.63172 5.13521 2.72717L6.36393 3.05751C7.05805 3.24421 7.79857 3.00352 8.25041 2.44454L9.0503 1.45503C9.28204 1.1684 9.71863 1.16899 9.94986 1.45503L10.7497 2.44458C11.2017 3.00356 11.942 3.24425 12.6362 3.05751L13.865 2.72717C14.221 2.63154 14.5737 2.88852 14.5927 3.25593L14.6582 4.52655C14.6952 5.24435 15.1528 5.87428 15.8241 6.13126L17.0123 6.58626C17.3566 6.718 17.4908 7.1334 17.2903 7.44174L16.5964 8.50818C16.2044 9.11065 16.2044 9.88927 16.5964 10.4918L17.2903 11.5582C17.4913 11.8673 17.3559 12.2822 17.0123 12.4138Z" fill="url(#paint0_linear_194_179)"/>
<path d="M12.598 6.33981C12.3559 6.09767 11.9632 6.09767 11.7211 6.33981L5.93331 12.1276C5.69117 12.3697 5.69117 12.7624 5.93334 13.0045C6.05443 13.1256 6.21315 13.1862 6.37183 13.1862C6.5305 13.1862 6.68926 13.1256 6.81031 13.0045L12.5981 7.21673C12.8402 6.97463 12.8402 6.58198 12.598 6.33981Z" fill="url(#paint1_linear_194_179)"/>
<path d="M6.99193 6.1582C6.30805 6.1582 5.75171 6.71458 5.75171 7.39843C5.75171 8.08231 6.30812 8.63865 6.99193 8.63865C7.67582 8.63865 8.23216 8.08228 8.23216 7.39843C8.2322 6.71458 7.67582 6.1582 6.99193 6.1582Z" fill="url(#paint2_linear_194_179)"/>
<path d="M11.5394 10.7061C10.8555 10.7061 10.2992 11.2624 10.2992 11.9463C10.2992 12.6302 10.8556 13.1865 11.5394 13.1865C12.2233 13.1865 12.7796 12.6301 12.7796 11.9463C12.7797 11.2624 12.2233 10.7061 11.5394 10.7061Z" fill="url(#paint3_linear_194_179)"/>
</g>
<defs>
<linearGradient id="paint0_linear_194_179" x1="9.50003" y1="0" x2="9.50003" y2="19" gradientUnits="userSpaceOnUse">
<stop stop-color="#0D58FD"/>
<stop offset="1" stop-color="#E729DA"/>
</linearGradient>
<linearGradient id="paint1_linear_194_179" x1="9.2657" y1="6.1582" x2="9.2657" y2="13.1862" gradientUnits="userSpaceOnUse">
<stop stop-color="#0D58FD"/>
<stop offset="1" stop-color="#E729DA"/>
</linearGradient>
<linearGradient id="paint2_linear_194_179" x1="6.99193" y1="6.1582" x2="6.99193" y2="8.63865" gradientUnits="userSpaceOnUse">
<stop stop-color="#0D58FD"/>
<stop offset="1" stop-color="#E729DA"/>
</linearGradient>
<linearGradient id="paint3_linear_194_179" x1="11.5394" y1="10.7061" x2="11.5394" y2="13.1865" gradientUnits="userSpaceOnUse">
<stop stop-color="#0D58FD"/>
<stop offset="1" stop-color="#E729DA"/>
</linearGradient>
<clipPath id="clip0_194_179">
<rect width="19" height="19" fill="white"/>
</clipPath>
</defs>
</svg>
