<svg width="212" height="212" viewBox="0 0 212 212" fill="none" xmlns="http://www.w3.org/2000/svg">
<g clip-path="url(#clip0_418_4240)">
<path d="M16.2629 33.6035L14.2021 38.4745V145.781C14.2021 152.861 19.9423 158.602 27.0236 158.602H171.275C178.356 158.602 184.097 152.862 184.097 145.781V38.4745L182.036 33.6035H16.2629Z" fill="#D8EAFB"/>
<path d="M163.102 33.6035V124.786C163.102 131.867 157.362 137.607 150.281 137.607H14.2021V145.78C14.2021 152.861 19.9423 158.602 27.0236 158.602H171.275C178.356 158.602 184.097 152.861 184.097 145.78V38.4745L182.036 33.6035H163.102Z" fill="#B3D8FB"/>
<path d="M171.275 3.0918H27.0236C19.9427 3.0918 14.2021 8.83236 14.2021 15.9132V38.4755H184.097V15.9132C184.097 8.83236 178.356 3.0918 171.275 3.0918Z" fill="#1690FB"/>
<path d="M171.275 3.0918H163.103V38.4755H184.097V15.9132C184.097 8.83236 178.357 3.0918 171.275 3.0918Z" fill="#0571F9"/>
<path d="M99.6302 131.69L95.1571 127.217L79.1163 96.5846C77.6108 92.463 81.6421 88.4777 85.7463 90.0308L116.105 106.27L120.578 110.743L99.6302 131.69Z" fill="#FCEED9"/>
<path d="M80.9453 90.6622C82.2471 89.7198 83.9883 89.3642 85.7464 90.0296L116.105 106.269L120.578 110.742L110.801 120.519L80.9453 90.6622Z" fill="#FAD59A"/>
<path d="M89.5578 116.523L79.1168 96.5846C77.6113 92.463 81.6426 88.4777 85.7468 90.0308L105.49 100.591L89.5578 116.523Z" fill="#7C8B96"/>
<path d="M80.9453 90.6622C82.2471 89.7198 83.9883 89.3642 85.7464 90.0296L105.489 100.59L98.1811 107.898L80.9453 90.6622Z" fill="#465961"/>
<path d="M99.1128 131.172L172.587 204.647C178.372 210.431 187.75 210.431 193.534 204.647C199.319 198.862 199.319 189.484 193.534 183.699L120.06 110.225L99.1128 131.172Z" fill="#F9C301"/>
<path d="M110.248 120.037L174.257 184.047C180.042 189.831 180.042 199.21 174.257 204.994C174.05 205.201 173.83 205.383 173.615 205.575C179.434 210.406 188.081 210.101 193.535 204.646C199.319 198.862 199.319 189.484 193.535 183.699L120.06 110.225L110.248 120.037Z" fill="#D4A806"/>
<path d="M37.4265 26.5356C40.6033 26.5356 43.1786 23.9602 43.1786 20.7834C43.1786 17.6066 40.6033 15.0312 37.4265 15.0312C34.2496 15.0312 31.6743 17.6066 31.6743 20.7834C31.6743 23.9602 34.2496 26.5356 37.4265 26.5356Z" fill="black"/>
<path d="M55.1218 26.5356C58.2986 26.5356 60.8739 23.9602 60.8739 20.7834C60.8739 17.6066 58.2986 15.0312 55.1218 15.0312C51.945 15.0312 49.3696 17.6066 49.3696 20.7834C49.3696 23.9602 51.945 26.5356 55.1218 26.5356Z" fill="black"/>
<path d="M72.8166 26.5356C75.9934 26.5356 78.5688 23.9602 78.5688 20.7834C78.5688 17.6066 75.9934 15.0312 72.8166 15.0312C69.6398 15.0312 67.0645 17.6066 67.0645 20.7834C67.0645 23.9602 69.6398 26.5356 72.8166 26.5356Z" fill="black"/>
<path d="M123.573 59.8226C125.28 59.8226 126.664 58.4388 126.664 56.7316C126.664 55.0244 125.28 53.6406 123.573 53.6406H74.7267C73.0195 53.6406 71.6357 55.0244 71.6357 56.7316C71.6357 58.4388 73.0195 59.8226 74.7267 59.8226H123.573Z" fill="black"/>
<path d="M32.6377 72.4679C32.6377 74.1751 34.0215 75.5589 35.7287 75.5589H162.57C164.278 75.5589 165.661 74.1751 165.661 72.4679C165.661 70.7607 164.278 69.377 162.57 69.377H35.7291C34.0219 69.377 32.6377 70.7607 32.6377 72.4679Z" fill="black"/>
<path d="M35.7292 90.7503H64.5359C66.2431 90.7503 67.6269 89.3665 67.6269 87.6593C67.6269 85.9522 66.2431 84.5684 64.5359 84.5684H35.7292C34.022 84.5684 32.6382 85.9522 32.6382 87.6593C32.6378 89.3665 34.022 90.7503 35.7292 90.7503Z" fill="black"/>
<path d="M195.72 181.513L175.365 161.158C182.163 159.348 187.188 153.141 187.188 145.781V15.9124C187.188 7.13802 180.05 0 171.276 0H128.912C127.205 0 125.821 1.3838 125.821 3.09098C125.821 4.79816 127.205 6.18195 128.912 6.18195H171.275C176.641 6.18195 181.006 10.547 181.006 15.9124V35.3833H17.2937V15.9124C17.2937 10.547 21.6587 6.18195 27.0242 6.18195H114.313C116.02 6.18195 117.404 4.79816 117.404 3.09098C117.404 1.3838 116.02 0 114.313 0H27.0238C18.2498 0 11.1113 7.13802 11.1113 15.9124V119.818C11.1113 121.525 12.4951 122.909 14.2023 122.909C15.9095 122.909 17.2933 121.525 17.2933 119.818V41.5657H181.005V145.781C181.005 151.146 176.64 155.511 171.275 155.511H169.718C169.718 155.511 119.132 104.636 117.563 103.544L87.2044 87.3047C87.0868 87.2417 86.9651 87.1867 86.8405 87.139C83.7971 85.9875 80.4689 86.6927 78.1547 88.9804C75.8405 91.2677 75.0964 94.5876 76.2127 97.6442C76.2595 97.7722 76.3146 97.8968 76.3779 98.0177L92.4187 128.65C92.7707 129.364 119.08 155.511 119.08 155.511H27.0238C21.6583 155.511 17.2933 151.146 17.2933 145.781V134.81C17.2933 133.103 15.9095 131.719 14.2023 131.719C12.4951 131.719 11.1113 133.103 11.1113 134.81V145.781C11.1113 154.555 18.2498 161.693 27.0238 161.693H125.263L151.375 187.805C152.582 189.012 154.54 189.012 155.747 187.805C156.954 186.599 156.954 184.641 155.747 183.434L104.002 131.689L120.578 115.114L191.349 185.885C195.919 190.455 195.919 197.89 191.349 202.46C186.779 207.03 179.343 207.03 174.773 202.46L165.716 193.403C164.509 192.196 162.551 192.196 161.344 193.403C160.137 194.61 160.137 196.567 161.344 197.774L170.402 206.832C176.816 213.544 188.94 213.899 195.72 206.832C202.433 200.417 202.787 188.294 195.72 181.513ZM115.689 110.225L99.1133 126.8L97.6773 125.364L93.3503 117.102L106.054 104.398L114.243 108.779L115.689 110.225ZM82.5011 93.3769C83.0626 93.1608 82.656 92.6688 84.501 92.8692L100.358 101.351L90.3455 111.364L81.969 95.3677C81.6721 94.3441 82.2348 93.6402 82.5011 93.3769Z" fill="black"/>
</g>
<defs>
<clipPath id="clip0_418_4240">
<rect width="212" height="212" fill="white"/>
</clipPath>
</defs>
</svg>
