<svg width="262" height="262" viewBox="0 0 262 262" fill="none" xmlns="http://www.w3.org/2000/svg">
<mask id="mask0_418_4159" style="mask-type:luminance" maskUnits="userSpaceOnUse" x="21" y="21" width="220" height="220">
<path d="M21 21H241V241H21V21Z" fill="white"/>
</mask>
<g mask="url(#mask0_418_4159)">
<path d="M182.914 192.05C183.084 186.781 178.823 182.405 173.579 182.405H173.56V182.402C173.813 182.402 174.072 182.401 174.339 182.401C179.429 182.398 183.551 178.267 183.549 173.178C183.544 168.087 179.414 163.991 174.325 163.995H135.981C134.912 163.995 134.155 162.951 134.488 161.936L137.849 151.677C140.709 142.947 140.2 137.001 140.2 126.776C140.2 120.761 135.324 115.885 129.309 115.885C123.845 115.885 119.227 119.933 118.512 125.35C117.72 131.343 117.187 142 107.279 151.541L100.286 158.274C96.3906 162.025 91.1931 164.121 85.785 164.121H76.5996V224.573C79.0978 224.573 84.1191 224.572 84.1226 224.572C97.4734 224.563 96.2531 237.785 112.857 237.77H169.369C174.452 237.77 178.573 233.649 178.573 228.565V228.564C178.573 223.481 174.452 219.36 169.369 219.36H170.99C175.993 219.36 180.264 215.47 180.431 210.47C180.605 205.242 176.419 200.95 171.231 200.95H173.47C178.477 200.95 182.752 197.054 182.914 192.05Z" fill="#FFCDBF"/>
<path d="M169.369 227.027H112.857C96.2531 227.043 97.4734 213.82 84.1226 213.829C84.1191 213.829 79.0978 213.83 76.5996 213.831V224.573C79.0978 224.572 84.1191 224.571 84.1226 224.571C97.4734 224.563 96.2531 237.785 112.857 237.77H169.369C174.452 237.77 178.573 233.648 178.573 228.565V228.564C178.573 226.557 177.924 224.706 176.834 223.193C175.162 225.512 172.445 227.027 169.369 227.027Z" fill="#FFBEAB"/>
<path d="M73.9855 158.689H39.1223C36.4922 158.689 34.3601 160.821 34.3601 163.451V226.427C34.3601 229.057 36.4922 231.189 39.1223 231.189H73.9855C76.6156 231.189 78.7477 229.057 78.7477 226.427V163.451C78.7477 160.821 76.6156 158.689 73.9855 158.689Z" fill="#54A0FF"/>
<path d="M47.2505 226.427V163.452C47.2505 160.822 49.3826 158.689 52.0127 158.689H39.1221C36.492 158.689 34.3599 160.822 34.3599 163.452V226.427C34.3599 229.057 36.492 231.189 39.1221 231.189H52.0127C49.3826 231.189 47.2505 229.057 47.2505 226.427Z" fill="#338DEF"/>
<path d="M84.58 74.0918C85.8807 72.85 85.1627 70.6865 83.3657 70.4309L69.4847 68.4547C68.771 68.3533 68.1539 67.9142 67.8347 67.2808L61.627 54.9595C60.823 53.3641 58.501 53.3641 57.6975 54.9595L51.4894 67.2808C51.1705 67.9142 50.5535 68.3533 49.8398 68.4547L35.9583 70.4309C34.1614 70.6865 33.4438 72.85 34.744 74.0918L44.7888 83.6824C45.3049 84.1757 45.5408 84.886 45.4187 85.5825L43.0477 99.125C42.7405 100.878 44.6191 102.215 46.227 101.387L58.6424 94.9935C59.2809 94.6648 60.0432 94.6648 60.6817 94.9935L73.0975 101.387C74.705 102.215 76.5836 100.878 76.2768 99.125L73.9053 85.5825C73.7837 84.886 74.0192 84.1757 74.5357 83.6824L84.58 74.0918Z" fill="#FECA57"/>
<path d="M60.5778 83.1036C60.6998 82.4075 60.4639 81.6973 59.9474 81.204L49.9031 71.6129C48.9075 70.662 49.0978 69.174 50.047 68.4126C49.9787 68.429 49.9099 68.4449 49.8395 68.4547L35.9584 70.4309C34.161 70.6865 33.4439 72.85 34.7441 74.0918L44.7885 83.6824C45.305 84.1757 45.5409 84.886 45.4188 85.5825L43.0478 99.125C42.7406 100.878 44.6196 102.215 46.2271 101.387L58.4818 95.0765L60.5778 83.1036Z" fill="#F4B537"/>
<path d="M51.1178 67.9523L64.9988 65.9766C65.6902 65.8782 66.2883 65.4614 66.6153 64.8598L61.6271 54.9594C60.8236 53.3644 58.5011 53.3644 57.6976 54.9594L51.4895 67.2811C51.3468 67.5652 51.1414 67.8071 50.8965 68C50.9691 67.9824 51.0413 67.963 51.1178 67.9523Z" fill="#F4B537"/>
<path d="M227.552 74.0918C228.853 72.85 228.135 70.6865 226.338 70.4309L212.457 68.4547C211.743 68.3533 211.126 67.9142 210.807 67.2808L204.599 54.9595C203.795 53.3641 201.473 53.3641 200.669 54.9595L194.462 67.2808C194.142 67.9142 193.526 68.3533 192.812 68.4547L178.931 70.4309C177.134 70.6865 176.416 72.85 177.716 74.0918L187.761 83.6824C188.277 84.1757 188.513 84.886 188.391 85.5825L186.02 99.125C185.713 100.878 187.591 102.215 189.199 101.387L201.615 94.9935C202.253 94.6648 203.016 94.6648 203.654 94.9935L216.069 101.387C217.677 102.215 219.556 100.878 219.249 99.125L216.878 85.5825C216.756 84.886 216.992 84.1757 217.508 83.6824L227.552 74.0918Z" fill="#FECA57"/>
<path d="M203.55 83.1036C203.672 82.4075 203.436 81.6973 202.92 81.204L192.875 71.6129C191.88 70.662 192.07 69.174 193.019 68.4126C192.951 68.429 192.882 68.4449 192.812 68.4547L178.931 70.4309C177.134 70.6865 176.416 72.85 177.716 74.0918L187.761 83.6824C188.277 84.1757 188.513 84.886 188.391 85.5825L186.02 99.125C185.713 100.878 187.592 102.215 189.199 101.387L201.454 95.0765L203.55 83.1036Z" fill="#F4B537"/>
<path d="M194.09 67.9523L207.971 65.9766C208.662 65.8782 209.26 65.4614 209.587 64.8598L204.599 54.9594C203.795 53.3644 201.473 53.3644 200.669 54.9594L194.462 67.2811C194.319 67.5652 194.113 67.8071 193.869 68C193.941 67.9824 194.013 67.963 194.09 67.9523Z" fill="#F4B537"/>
<path d="M171.439 57.0974C173.542 55.0899 172.381 51.5919 169.475 51.1781L147.03 47.9833C145.877 47.8192 144.879 47.1089 144.363 46.085L134.325 26.1621C133.026 23.5831 129.271 23.5831 127.971 26.1621L117.934 46.085C117.418 47.1089 116.421 47.8192 115.266 47.9833L92.8217 51.1781C89.9157 51.5919 88.7556 55.0899 90.858 57.0974L107.099 72.6053C107.934 73.4024 108.315 74.5513 108.118 75.6767L104.284 97.574C103.788 100.409 106.826 102.571 109.425 101.232L129.5 90.8941C130.532 90.3626 131.765 90.3626 132.797 90.8941L152.872 101.232C155.471 102.571 158.509 100.409 158.013 97.574L154.179 75.6767C153.981 74.5513 154.362 73.4024 155.198 72.6053L171.439 57.0974Z" fill="#FECA57"/>
<path d="M130.425 45.5068C131.579 45.3426 132.576 44.6323 133.093 43.6084L138.103 33.6633L134.325 26.1639C133.025 23.585 129.27 23.585 127.972 26.1639L117.934 46.0868C117.645 46.6596 117.202 47.1288 116.669 47.4648L130.425 45.5068Z" fill="#F4B537"/>
<path d="M119.443 95.0955L123.277 73.1986C123.475 72.0724 123.093 70.9239 122.258 70.1268L106.017 54.619C104.307 52.9861 104.755 50.3685 106.545 49.2247L92.8215 51.178C89.9159 51.5918 88.7554 55.0899 90.8582 57.0974L107.099 72.6052C107.934 73.4028 108.316 74.5513 108.118 75.6771L104.284 97.574C103.788 100.409 106.825 102.571 109.425 101.232L119.413 96.0885C119.377 95.7701 119.383 95.438 119.443 95.0955Z" fill="#F4B537"/>
<path d="M182.887 192.05C183.058 186.781 178.796 182.405 173.553 182.405H173.534V182.402C173.787 182.402 174.045 182.401 174.313 182.401C179.403 182.398 183.525 178.267 183.522 173.178C183.518 168.087 179.388 163.991 174.299 163.995H135.954C134.885 163.995 134.129 162.951 134.461 161.936L137.822 151.677C140.682 142.947 140.174 137.001 140.174 126.776C140.174 120.761 135.298 115.885 129.283 115.885C123.819 115.885 119.201 119.933 118.486 125.35C117.694 131.343 117.161 142 107.253 151.541L100.26 158.274C96.364 162.025 91.1665 164.121 85.7589 164.121H78.7214V224.573C81.2196 224.573 84.0925 224.572 84.0964 224.572C97.4472 224.563 96.2269 237.785 112.83 237.77H169.342C174.426 237.77 178.547 233.649 178.547 228.565V228.564C178.547 223.481 174.426 219.36 169.342 219.36H170.963C175.966 219.36 180.237 215.47 180.404 210.47C180.578 205.242 176.392 200.95 171.204 200.95H173.443C178.45 200.95 182.726 197.054 182.887 192.05Z" stroke="black" stroke-width="6" stroke-miterlimit="10" stroke-linecap="round" stroke-linejoin="round"/>
<path d="M170.184 219.363H158.893" stroke="black" stroke-width="6" stroke-miterlimit="10" stroke-linecap="round" stroke-linejoin="round"/>
<path d="M170.425 200.955H158.893" stroke="black" stroke-width="6" stroke-miterlimit="10" stroke-linecap="round" stroke-linejoin="round"/>
<path d="M173.534 182.406H158.893" stroke="black" stroke-width="6" stroke-miterlimit="10" stroke-linecap="round" stroke-linejoin="round"/>
<path d="M227.016 74.0918C228.29 72.85 227.587 70.6865 225.826 70.4309L212.229 68.4547C211.53 68.3533 210.926 67.9142 210.613 67.2808L204.532 54.9595C203.745 53.3641 201.47 53.3641 200.683 54.9595L194.602 67.2808C194.289 67.9142 193.685 68.3533 192.986 68.4547L179.388 70.4309C177.628 70.6865 176.925 72.85 178.199 74.0918L188.038 83.6824C188.544 84.1757 188.775 84.886 188.655 85.5825L186.333 99.125C186.032 100.878 187.872 102.215 189.446 101.387L201.609 94.9935C202.234 94.6648 202.981 94.6648 203.606 94.9935L215.768 101.387C217.343 102.215 219.183 100.878 218.882 99.125L216.56 85.5825C216.44 84.886 216.671 84.1757 217.177 83.6824L227.016 74.0918Z" stroke="black" stroke-width="6" stroke-miterlimit="10" stroke-linecap="round" stroke-linejoin="round"/>
<path d="M84.044 74.0918C85.318 72.85 84.6151 70.6865 82.8546 70.4309L69.2572 68.4547C68.5581 68.3533 67.9535 67.9142 67.6411 67.2808L61.5602 54.9595C60.773 53.3641 58.4978 53.3641 57.7106 54.9595L51.6297 67.2808C51.3169 67.9142 50.7127 68.3533 50.0136 68.4547L36.4162 70.4309C34.6557 70.6865 33.9528 72.85 35.2268 74.0918L45.0662 83.6824C45.5719 84.1757 45.8027 84.886 45.6832 85.5825L43.3603 99.125C43.06 100.878 44.9003 102.215 46.4747 101.387L58.6366 94.9935C59.2618 94.6648 60.0086 94.6648 60.6342 94.9935L72.7961 101.387C74.3705 102.215 76.2112 100.878 75.9105 99.125L73.5876 85.5825C73.4681 84.886 73.6989 84.1757 74.205 83.6824L84.044 74.0918Z" stroke="black" stroke-width="6" stroke-miterlimit="10" stroke-linecap="round" stroke-linejoin="round"/>
<path d="M64.0468 231.189H73.9589C76.589 231.189 78.7211 229.057 78.7211 226.427V163.452C78.7211 160.822 76.589 158.689 73.9589 158.689H39.0957C36.4656 158.689 34.3335 160.822 34.3335 163.452V226.427C34.3335 229.057 36.4656 231.189 39.0957 231.189H49.0078" stroke="black" stroke-width="6" stroke-miterlimit="10" stroke-linecap="round" stroke-linejoin="round"/>
<path d="M159.179 68.219L170.588 57.0974C172.648 55.0899 171.511 51.5918 168.665 51.178L146.679 47.9833C145.549 47.8191 144.571 47.1093 144.066 46.0849L134.233 26.1625C132.96 23.5831 129.282 23.5831 128.01 26.1625L118.177 46.0849C117.671 47.1093 116.695 47.8191 115.564 47.9833L93.5783 51.178C90.7316 51.5918 89.5951 55.0899 91.655 57.0974L107.564 72.6052C108.382 73.4023 108.755 74.5509 108.562 75.6767L104.806 97.574C104.32 100.409 107.296 102.571 109.842 101.232L129.507 90.894C130.518 90.3625 131.725 90.3625 132.736 90.894L152.401 101.232C154.947 102.571 157.923 100.409 157.436 97.574L154.981 83.2581" stroke="black" stroke-width="6" stroke-miterlimit="10" stroke-linecap="round" stroke-linejoin="round"/>
</g>
</svg>
