<svg width="212" height="252" viewBox="0 0 212 252" fill="none" xmlns="http://www.w3.org/2000/svg">
<path fill-rule="evenodd" clip-rule="evenodd" d="M106 85.8047L191.878 119.197V218.359L106 251.75L20.123 218.359V119.197L106 85.8047Z" fill="#A45E26"/>
<path fill-rule="evenodd" clip-rule="evenodd" d="M106 85.8047L191.878 119.197V218.359L106 251.75V85.8047Z" fill="#A35623"/>
<path fill-rule="evenodd" clip-rule="evenodd" d="M106 152.484L86.468 186.315C86.468 186.315 57.8115 175.172 0.5 152.888L20.032 119.057L106 152.484Z" fill="#C36A26"/>
<path fill-rule="evenodd" clip-rule="evenodd" d="M106 152.484L125.532 186.315C125.532 186.315 154.188 175.172 211.5 152.888L191.968 119.057L106 152.484Z" fill="#C36A26"/>
<path fill-rule="evenodd" clip-rule="evenodd" d="M191.743 119.144L106 85.8047L20.257 119.144L106 152.484L191.743 119.144Z" fill="#9B5D2B"/>
<path fill-rule="evenodd" clip-rule="evenodd" d="M191.743 119.144L106 85.8047V152.484L191.743 119.144Z" fill="#824E2B"/>
<path fill-rule="evenodd" clip-rule="evenodd" d="M105.993 129.917C130.282 129.917 150.093 110.106 150.093 85.8163C150.093 61.5273 130.282 41.7168 105.993 41.7168C81.703 41.7168 61.8925 61.5273 61.8925 85.8163C61.8925 110.106 81.703 129.917 105.993 129.917Z" fill="#8168F0"/>
<path fill-rule="evenodd" clip-rule="evenodd" d="M122.691 65.7064C125.188 63.2099 129.235 63.2099 131.731 65.7064C134.228 68.2024 134.228 72.2504 131.731 74.7464L100.549 105.929C97.722 108.756 93.051 108.311 90.782 105.062L77.6635 88.5524C75.47 85.7939 75.9285 81.7794 78.687 79.5869C81.446 77.3934 85.4595 77.8519 87.653 80.6104L96.568 91.8294L122.691 65.7064Z" fill="#EFF4F7"/>
<path fill-rule="evenodd" clip-rule="evenodd" d="M186.509 82.8696C188.718 82.8696 190.509 84.66 190.509 86.8696C190.509 89.0786 188.718 90.869 186.509 90.869H167.774C165.565 90.869 163.774 89.0786 163.774 86.8696C163.774 84.66 165.565 82.8696 167.774 82.8696H186.509ZM101.992 4.24805C101.992 2.03905 103.783 0.248047 105.992 0.248047C108.201 0.248047 109.992 2.03905 109.992 4.24805V22.9825C109.992 25.1915 108.201 26.9825 105.992 26.9825C103.783 26.9825 101.992 25.1915 101.992 22.9825V4.24805ZM61.6145 16.635C60.5185 14.728 61.176 12.293 63.0835 11.1975C64.9905 10.1015 67.4255 10.759 68.521 12.6665L77.888 28.8905C78.9835 30.797 78.326 33.232 76.419 34.328C74.512 35.424 72.077 34.766 70.9815 32.859L61.6145 16.635ZM32.826 47.574C30.919 46.4695 30.268 44.028 31.373 42.121C32.477 40.214 34.919 39.5635 36.8255 40.668L53.0495 50.035C54.9565 51.1395 55.6075 53.581 54.503 55.488C53.3985 57.395 50.9565 58.0455 49.0495 56.941L32.826 47.574ZM23.371 88.7641C21.162 88.7641 19.371 86.9736 19.371 84.7641C19.371 82.5551 21.162 80.7645 23.371 80.7645H42.1055C44.3145 80.7645 46.1055 82.5551 46.1055 84.7641C46.1055 86.9736 44.3145 88.7641 42.1055 88.7641H23.371ZM143.182 13.7185C144.278 11.8115 146.713 11.1535 148.62 12.2495C150.527 13.3455 151.184 15.7805 150.089 17.6875L140.722 33.9115C139.626 35.818 137.191 36.476 135.284 35.3805C133.378 34.2845 132.72 31.8495 133.815 29.9425L143.182 13.7185ZM174.106 42.491C176.013 41.3865 178.455 42.037 179.56 43.944C180.664 45.851 180.013 48.2925 178.106 49.397L161.882 58.764C159.976 59.8685 157.534 59.218 156.429 57.311C155.324 55.404 155.976 52.9625 157.882 51.858L174.106 42.491Z" fill="#FAD808"/>
</svg>
